<svg xmlns="http://www.w3.org/2000/svg"
    xmlns:xlink="http://www.w3.org/1999/xlink" width="117" height="20">
    <linearGradient id="b" x2="0" y2="100%">
        <stop offset="0" stop-color="#bbb" stop-opacity=".1"/>
        <stop offset="1" stop-opacity=".1"/>
    </linearGradient>
    <clipPath id="a">
        <rect width="117" height="20" rx="3" fill="#fff"/>
    </clipPath>
    <g clip-path="url(#a)">
        <path fill="#555" d="M0 0h30v20H0z"/>
        <path fill="#425d79" d="M30 0h87v20H30z"/>
        <path fill="url(#b)" d="M0 0h117v20H0z"/>
    </g>
    <g fill="#fff" text-anchor="middle" font-family="DejaVu Sans,Verdana,Geneva,sans-serif" font-size="110">
        <svg x="4px" y="0px" width="22px" height="20px" viewBox="-2 0 28 24" style="background-color: #fff; border-radius: 1px;">
            <path d="m0 0h24v24h-24z" fill="#000" opacity="0" transform="matrix(-1 0 0 -1 24 24)"/>
            <path d="m12 1a10.89 10.89 0 0 0 -11 10.77 10.79 10.79 0 0 0 7.52 10.23c.55.1.75-.23.75-.52s0-.93 0-1.83c-3.06.65-3.71-1.44-3.71-1.44a2.86 2.86 0 0 0 -1.22-1.58c-1-.66.08-.65.08-.65a2.31 2.31 0 0 1 1.68 1.11 2.37 2.37 0 0 0 3.2.89 2.33 2.33 0 0 1 .7-1.44c-2.44-.27-5-1.19-5-5.32a4.15 4.15 0 0 1 1.11-2.91 3.78 3.78 0 0 1 .11-2.84s.93-.29 3 1.1a10.68 10.68 0 0 1 5.5 0c2.1-1.39 3-1.1 3-1.1a3.78 3.78 0 0 1 .11 2.84 4.15 4.15 0 0 1 1.17 2.89c0 4.14-2.58 5.05-5 5.32a2.5 2.5 0 0 1 .75 2v2.95s.2.63.75.52a10.8 10.8 0 0 0 7.5-10.22 10.89 10.89 0 0 0 -11-10.77" fill="#fff"/>
        </svg>
        <text x="245" y="140" transform="scale(.1)" textLength="30"></text>
        <text x="725" y="140" transform="scale(.1)" textLength="770">Open in Github</text>
    </g>
</svg>
